<svg width="26" height="18" viewBox="0 0 26 18" fill="none" xmlns="http://www.w3.org/2000/svg">
<path d="M0.75 17C0.828125 15.5547 1.125 14.2969 1.64062 13.2266C2.16406 12.1562 3.17969 11.1836 4.6875 10.3086L6.9375 9.00781C7.94531 8.42188 8.65234 7.92188 9.05859 7.50781C9.69922 6.85938 10.0195 6.11719 10.0195 5.28125C10.0195 4.30469 9.72656 3.53125 9.14062 2.96094C8.55469 2.38281 7.77344 2.09375 6.79688 2.09375C5.35156 2.09375 4.35156 2.64063 3.79688 3.73438C3.5 4.32031 3.33594 5.13281 3.30469 6.17188H1.16016C1.18359 4.71094 1.45312 3.51953 1.96875 2.59766C2.88281 0.972656 4.49609 0.160156 6.80859 0.160156C8.73047 0.160156 10.1328 0.679687 11.0156 1.71875C11.9062 2.75781 12.3516 3.91406 12.3516 5.1875C12.3516 6.53125 11.8789 7.67969 10.9336 8.63281C10.3867 9.1875 9.40625 9.85938 7.99219 10.6484L6.38672 11.5391C5.62109 11.9609 5.01953 12.3633 4.58203 12.7461C3.80078 13.4258 3.30859 14.1797 3.10547 15.0078H12.2695V17H0.75ZM20.3789 0.148438C22.2539 0.148438 23.5586 0.636719 24.293 1.61328C25.0352 2.58203 25.4062 3.58203 25.4062 4.61328H23.3203C23.1953 3.94922 22.9961 3.42969 22.7227 3.05469C22.2148 2.35156 21.4453 2 20.4141 2C19.2344 2 18.2969 2.54688 17.6016 3.64062C16.9062 4.72656 16.5195 6.28516 16.4414 8.31641C16.9258 7.60547 17.5352 7.07422 18.2695 6.72266C18.9414 6.41016 19.6914 6.25391 20.5195 6.25391C21.9258 6.25391 23.1523 6.70312 24.1992 7.60156C25.2461 8.5 25.7695 9.83984 25.7695 11.6211C25.7695 13.1445 25.2734 14.4961 24.2812 15.6758C23.2891 16.8477 21.875 17.4336 20.0391 17.4336C18.4688 17.4336 17.1133 16.8398 15.9727 15.6523C14.832 14.457 14.2617 12.4492 14.2617 9.62891C14.2617 7.54297 14.5156 5.77344 15.0234 4.32031C16 1.53906 17.7852 0.148438 20.3789 0.148438ZM20.2266 15.5586C21.3359 15.5586 22.1641 15.1875 22.7109 14.4453C23.2656 13.6953 23.543 12.8125 23.543 11.7969C23.543 10.9375 23.2969 10.1211 22.8047 9.34766C22.3125 8.56641 21.418 8.17578 20.1211 8.17578C19.2148 8.17578 18.418 8.47656 17.7305 9.07812C17.0508 9.67969 16.7109 10.5859 16.7109 11.7969C16.7109 12.8594 17.0195 13.7539 17.6367 14.4805C18.2617 15.1992 19.125 15.5586 20.2266 15.5586Z" fill="#84FF81"/>
</svg>
